<?xml version='1.0' encoding='UTF-8'?>
<svg width="41mm" height="41mm" version="1.1" viewBox="0 0 41 41" fill_color="#29ABE2" back_color="#1A1A1A" xmlns="http://www.w3.org/2000/svg"><path d="M2,2H3V3H2zM3,2H4V3H3zM4,2H5V3H4zM5,2H6V3H5zM6,2H7V3H6zM7,2H8V3H7zM8,2H9V3H8zM13,2H14V3H13zM14,2H15V3H14zM15,2H16V3H15zM16,2H17V3H16zM17,2H18V3H17zM18,2H19V3H18zM19,2H20V3H19zM20,2H21V3H20zM21,2H22V3H21zM22,2H23V3H22zM23,2H24V3H23zM24,2H25V3H24zM26,2H27V3H26zM28,2H29V3H28zM30,2H31V3H30zM32,2H33V3H32zM33,2H34V3H33zM34,2H35V3H34zM35,2H36V3H35zM36,2H37V3H36zM37,2H38V3H37zM38,2H39V3H38zM2,3H3V4H2zM8,3H9V4H8zM11,3H12V4H11zM12,3H13V4H12zM13,3H14V4H13zM18,3H19V4H18zM20,3H21V4H20zM24,3H25V4H24zM25,3H26V4H25zM26,3H27V4H26zM32,3H33V4H32zM38,3H39V4H38zM2,4H3V5H2zM4,4H5V5H4zM5,4H6V5H5zM6,4H7V5H6zM8,4H9V5H8zM10,4H11V5H10zM11,4H12V5H11zM12,4H13V5H12zM14,4H15V5H14zM15,4H16V5H15zM20,4H21V5H20zM21,4H22V5H21zM22,4H23V5H22zM27,4H28V5H27zM29,4H30V5H29zM32,4H33V5H32zM34,4H35V5H34zM35,4H36V5H35zM36,4H37V5H36zM38,4H39V5H38zM2,5H3V6H2zM4,5H5V6H4zM5,5H6V6H5zM6,5H7V6H6zM8,5H9V6H8zM10,5H11V6H10zM12,5H13V6H12zM14,5H15V6H14zM15,5H16V6H15zM17,5H18V6H17zM20,5H21V6H20zM23,5H24V6H23zM25,5H26V6H25zM26,5H27V6H26zM27,5H28V6H27zM30,5H31V6H30zM32,5H33V6H32zM34,5H35V6H34zM35,5H36V6H35zM36,5H37V6H36zM38,5H39V6H38zM2,6H3V7H2zM4,6H5V7H4zM5,6H6V7H5zM6,6H7V7H6zM8,6H9V7H8zM12,6H13V7H12zM14,6H15V7H14zM16,6H17V7H16zM18,6H19V7H18zM19,6H20V7H19zM20,6H21V7H20zM21,6H22V7H21zM26,6H27V7H26zM28,6H29V7H28zM32,6H33V7H32zM34,6H35V7H34zM35,6H36V7H35zM36,6H37V7H36zM38,6H39V7H38zM2,7H3V8H2zM8,7H9V8H8zM11,7H12V8H11zM12,7H13V8H12zM14,7H15V8H14zM17,7H18V8H17zM18,7H19V8H18zM20,7H21V8H20zM23,7H24V8H23zM24,7H25V8H24zM26,7H27V8H26zM32,7H33V8H32zM38,7H39V8H38zM2,8H3V9H2zM3,8H4V9H3zM4,8H5V9H4zM5,8H6V9H5zM6,8H7V9H6zM7,8H8V9H7zM8,8H9V9H8zM10,8H11V9H10zM12,8H13V9H12zM14,8H15V9H14zM16,8H17V9H16zM18,8H19V9H18zM20,8H21V9H20zM22,8H23V9H22zM24,8H25V9H24zM26,8H27V9H26zM28,8H29V9H28zM30,8H31V9H30zM32,8H33V9H32zM33,8H34V9H33zM34,8H35V9H34zM35,8H36V9H35zM36,8H37V9H36zM37,8H38V9H37zM38,8H39V9H38zM11,9H12V10H11zM12,9H13V10H12zM16,9H17V10H16zM19,9H20V10H19zM21,9H22V10H21zM27,9H28V10H27zM29,9H30V10H29zM30,9H31V10H30zM5,10H6V11H5zM6,10H7V11H6zM8,10H9V11H8zM9,10H10V11H9zM13,10H14V11H13zM15,10H16V11H15zM16,10H17V11H16zM18,10H19V11H18zM21,10H22V11H21zM22,10H23V11H22zM24,10H25V11H24zM25,10H26V11H25zM26,10H27V11H26zM28,10H29V11H28zM30,10H31V11H30zM35,10H36V11H35zM36,10H37V11H36zM5,11H6V12H5zM7,11H8V12H7zM10,11H11V12H10zM12,11H13V12H12zM13,11H14V12H13zM16,11H17V12H16zM17,11H18V12H17zM22,11H23V12H22zM27,11H28V12H27zM29,11H30V12H29zM33,11H34V12H33zM34,11H35V12H34zM35,11H36V12H35zM36,11H37V12H36zM37,11H38V12H37zM2,12H3V13H2zM4,12H5V13H4zM5,12H6V13H5zM6,12H7V13H6zM7,12H8V13H7zM8,12H9V13H8zM11,12H12V13H11zM15,12H16V13H15zM17,12H18V13H17zM19,12H20V13H19zM21,12H22V13H21zM22,12H23V13H22zM27,12H28V13H27zM29,12H30V13H29zM30,12H31V13H30zM31,12H32V13H31zM32,12H33V13H32zM33,12H34V13H33zM34,12H35V13H34zM38,12H39V13H38zM2,13H3V14H2zM6,13H7V14H6zM13,13H14V14H13zM16,13H17V14H16zM17,13H18V14H17zM18,13H19V14H18zM23,13H24V14H23zM24,13H25V14H24zM25,13H26V14H25zM26,13H27V14H26zM28,13H29V14H28zM29,13H30V14H29zM30,13H31V14H30zM31,13H32V14H31zM32,13H33V14H32zM34,13H35V14H34zM35,13H36V14H35zM36,13H37V14H36zM37,13H38V14H37zM38,13H39V14H38zM5,14H6V15H5zM6,14H7V15H6zM8,14H9V15H8zM10,14H11V15H10zM11,14H12V15H11zM12,14H13V15H12zM15,14H16V15H15zM16,14H17V15H16zM17,14H18V15H17zM18,14H19V15H18zM19,14H20V15H19zM22,14H23V15H22zM29,14H30V15H29zM30,14H31V15H30zM32,14H33V15H32zM33,14H34V15H33zM35,14H36V15H35zM2,15H3V16H2zM4,15H5V16H4zM5,15H6V16H5zM7,15H8V16H7zM9,15H10V16H9zM12,15H13V16H12zM18,15H19V16H18zM19,15H20V16H19zM20,15H21V16H20zM21,15H22V16H21zM23,15H24V16H23zM29,15H30V16H29zM31,15H32V16H31zM34,15H35V16H34zM36,15H37V16H36zM37,15H38V16H37zM2,16H3V17H2zM3,16H4V17H3zM5,16H6V17H5zM6,16H7V17H6zM7,16H8V17H7zM8,16H9V17H8zM11,16H12V17H11zM12,16H13V17H12zM13,16H14V17H13zM14,16H15V17H14zM15,16H16V17H15zM17,16H18V17H17zM18,16H19V17H18zM19,16H20V17H19zM20,16H21V17H20zM22,16H23V17H22zM23,16H24V17H23zM24,16H25V17H24zM27,16H28V17H27zM28,16H29V17H28zM29,16H30V17H29zM31,16H32V17H31zM32,16H33V17H32zM35,16H36V17H35zM36,16H37V17H36zM37,16H38V17H37zM38,16H39V17H38zM4,17H5V18H4zM6,17H7V18H6zM10,17H11V18H10zM11,17H12V18H11zM12,17H13V18H12zM16,17H17V18H16zM17,17H18V18H17zM18,17H19V18H18zM23,17H24V18H23zM24,17H25V18H24zM25,17H26V18H25zM29,17H30V18H29zM30,17H31V18H30zM32,17H33V18H32zM35,17H36V18H35zM36,17H37V18H36zM37,17H38V18H37zM38,17H39V18H38zM3,18H4V19H3zM4,18H5V19H4zM5,18H6V19H5zM6,18H7V19H6zM7,18H8V19H7zM8,18H9V19H8zM12,18H13V19H12zM14,18H15V19H14zM17,18H18V19H17zM19,18H20V19H19zM20,18H21V19H20zM21,18H22V19H21zM23,18H24V19H23zM25,18H26V19H25zM27,18H28V19H27zM29,18H30V19H29zM30,18H31V19H30zM32,18H33V19H32zM33,18H34V19H33zM36,18H37V19H36zM37,18H38V19H37zM38,18H39V19H38zM2,19H3V20H2zM3,19H4V20H3zM6,19H7V20H6zM7,19H8V20H7zM11,19H12V20H11zM13,19H14V20H13zM14,19H15V20H14zM15,19H16V20H15zM16,19H17V20H16zM17,19H18V20H17zM26,19H27V20H26zM28,19H29V20H28zM29,19H30V20H29zM31,19H32V20H31zM33,19H34V20H33zM36,19H37V20H36zM37,19H38V20H37zM2,20H3V21H2zM8,20H9V21H8zM10,20H11V21H10zM11,20H12V21H11zM12,20H13V21H12zM13,20H14V21H13zM18,20H19V21H18zM19,20H20V21H19zM23,20H24V21H23zM24,20H25V21H24zM25,20H26V21H25zM29,20H30V21H29zM34,20H35V21H34zM35,20H36V21H35zM38,20H39V21H38zM3,21H4V22H3zM4,21H5V22H4zM5,21H6V22H5zM7,21H8V22H7zM12,21H13V22H12zM13,21H14V22H13zM14,21H15V22H14zM16,21H17V22H16zM17,21H18V22H17zM18,21H19V22H18zM22,21H23V22H22zM23,21H24V22H23zM24,21H25V22H24zM27,21H28V22H27zM29,21H30V22H29zM31,21H32V22H31zM33,21H34V22H33zM35,21H36V22H35zM38,21H39V22H38zM3,22H4V23H3zM4,22H5V23H4zM6,22H7V23H6zM7,22H8V23H7zM8,22H9V23H8zM9,22H10V23H9zM12,22H13V23H12zM13,22H14V23H13zM16,22H17V23H16zM18,22H19V23H18zM20,22H21V23H20zM21,22H22V23H21zM22,22H23V23H22zM23,22H24V23H23zM24,22H25V23H24zM28,22H29V23H28zM29,22H30V23H29zM30,22H31V23H30zM31,22H32V23H31zM32,22H33V23H32zM34,22H35V23H34zM35,22H36V23H35zM37,22H38V23H37zM2,23H3V24H2zM4,23H5V24H4zM5,23H6V24H5zM10,23H11V24H10zM11,23H12V24H11zM14,23H15V24H14zM16,23H17V24H16zM18,23H19V24H18zM20,23H21V24H20zM22,23H23V24H22zM23,23H24V24H23zM28,23H29V24H28zM29,23H30V24H29zM30,23H31V24H30zM33,23H34V24H33zM34,23H35V24H34zM35,23H36V24H35zM36,23H37V24H36zM37,23H38V24H37zM3,24H4V25H3zM5,24H6V25H5zM6,24H7V25H6zM8,24H9V25H8zM16,24H17V25H16zM18,24H19V25H18zM19,24H20V25H19zM20,24H21V25H20zM22,24H23V25H22zM23,24H24V25H23zM27,24H28V25H27zM28,24H29V25H28zM29,24H30V25H29zM34,24H35V25H34zM38,24H39V25H38zM2,25H3V26H2zM4,25H5V26H4zM5,25H6V26H5zM6,25H7V26H6zM12,25H13V26H12zM15,25H16V26H15zM17,25H18V26H17zM18,25H19V26H18zM20,25H21V26H20zM22,25H23V26H22zM24,25H25V26H24zM29,25H30V26H29zM30,25H31V26H30zM33,25H34V26H33zM35,25H36V26H35zM36,25H37V26H36zM37,25H38V26H37zM38,25H39V26H38zM4,26H5V27H4zM6,26H7V27H6zM7,26H8V27H7zM8,26H9V27H8zM10,26H11V27H10zM11,26H12V27H11zM13,26H14V27H13zM15,26H16V27H15zM19,26H20V27H19zM21,26H22V27H21zM22,26H23V27H22zM25,26H26V27H25zM26,26H27V27H26zM30,26H31V27H30zM31,26H32V27H31zM32,26H33V27H32zM33,26H34V27H33zM37,26H38V27H37zM2,27H3V28H2zM6,27H7V28H6zM13,27H14V28H13zM15,27H16V28H15zM16,27H17V28H16zM17,27H18V28H17zM18,27H19V28H18zM19,27H20V28H19zM20,27H21V28H20zM24,27H25V28H24zM26,27H27V28H26zM27,27H28V28H27zM28,27H29V28H28zM29,27H30V28H29zM30,27H31V28H30zM34,27H35V28H34zM2,28H3V29H2zM3,28H4V29H3zM4,28H5V29H4zM5,28H6V29H5zM6,28H7V29H6zM7,28H8V29H7zM8,28H9V29H8zM9,28H10V29H9zM16,28H17V29H16zM18,28H19V29H18zM21,28H22V29H21zM22,28H23V29H22zM23,28H24V29H23zM29,28H30V29H29zM32,28H33V29H32zM33,28H34V29H33zM34,28H35V29H34zM35,28H36V29H35zM37,28H38V29H37zM38,28H39V29H38zM2,29H3V30H2zM4,29H5V30H4zM5,29H6V30H5zM9,29H10V30H9zM13,29H14V30H13zM18,29H19V30H18zM20,29H21V30H20zM23,29H24V30H23zM25,29H26V30H25zM29,29H30V30H29zM31,29H32V30H31zM33,29H34V30H33zM36,29H37V30H36zM37,29H38V30H37zM2,30H3V31H2zM4,30H5V31H4zM5,30H6V31H5zM6,30H7V31H6zM7,30H8V31H7zM8,30H9V31H8zM10,30H11V31H10zM12,30H13V31H12zM13,30H14V31H13zM14,30H15V31H14zM17,30H18V31H17zM26,30H27V31H26zM27,30H28V31H27zM30,30H31V31H30zM31,30H32V31H31zM32,30H33V31H32zM33,30H34V31H33zM34,30H35V31H34zM35,30H36V31H35zM36,30H37V31H36zM10,31H11V32H10zM15,31H16V32H15zM18,31H19V32H18zM19,31H20V32H19zM20,31H21V32H20zM23,31H24V32H23zM24,31H25V32H24zM29,31H30V32H29zM30,31H31V32H30zM34,31H35V32H34zM35,31H36V32H35zM36,31H37V32H36zM37,31H38V32H37zM2,32H3V33H2zM3,32H4V33H3zM4,32H5V33H4zM5,32H6V33H5zM6,32H7V33H6zM7,32H8V33H7zM8,32H9V33H8zM10,32H11V33H10zM12,32H13V33H12zM13,32H14V33H13zM14,32H15V33H14zM15,32H16V33H15zM17,32H18V33H17zM18,32H19V33H18zM20,32H21V33H20zM22,32H23V33H22zM24,32H25V33H24zM25,32H26V33H25zM26,32H27V33H26zM28,32H29V33H28zM30,32H31V33H30zM32,32H33V33H32zM34,32H35V33H34zM35,32H36V33H35zM36,32H37V33H36zM38,32H39V33H38zM2,33H3V34H2zM8,33H9V34H8zM11,33H12V34H11zM12,33H13V34H12zM16,33H17V34H16zM17,33H18V34H17zM19,33H20V34H19zM21,33H22V34H21zM24,33H25V34H24zM27,33H28V34H27zM29,33H30V34H29zM30,33H31V34H30zM34,33H35V34H34zM35,33H36V34H35zM38,33H39V34H38zM2,34H3V35H2zM4,34H5V35H4zM5,34H6V35H5zM6,34H7V35H6zM8,34H9V35H8zM10,34H11V35H10zM11,34H12V35H11zM12,34H13V35H12zM14,34H15V35H14zM15,34H16V35H15zM16,34H17V35H16zM17,34H18V35H17zM18,34H19V35H18zM20,34H21V35H20zM23,34H24V35H23zM24,34H25V35H24zM26,34H27V35H26zM28,34H29V35H28zM29,34H30V35H29zM30,34H31V35H30zM31,34H32V35H31zM32,34H33V35H32zM33,34H34V35H33zM34,34H35V35H34zM2,35H3V36H2zM4,35H5V36H4zM5,35H6V36H5zM6,35H7V36H6zM8,35H9V36H8zM10,35H11V36H10zM13,35H14V36H13zM15,35H16V36H15zM18,35H19V36H18zM19,35H20V36H19zM21,35H22V36H21zM22,35H23V36H22zM24,35H25V36H24zM25,35H26V36H25zM26,35H27V36H26zM27,35H28V36H27zM28,35H29V36H28zM32,35H33V36H32zM2,36H3V37H2zM4,36H5V37H4zM5,36H6V37H5zM6,36H7V37H6zM8,36H9V37H8zM12,36H13V37H12zM14,36H15V37H14zM15,36H16V37H15zM16,36H17V37H16zM19,36H20V37H19zM20,36H21V37H20zM21,36H22V37H21zM25,36H26V37H25zM26,36H27V37H26zM28,36H29V37H28zM30,36H31V37H30zM33,36H34V37H33zM34,36H35V37H34zM36,36H37V37H36zM37,36H38V37H37zM38,36H39V37H38zM2,37H3V38H2zM8,37H9V38H8zM12,37H13V38H12zM14,37H15V38H14zM15,37H16V38H15zM16,37H17V38H16zM17,37H18V38H17zM21,37H22V38H21zM22,37H23V38H22zM23,37H24V38H23zM25,37H26V38H25zM28,37H29V38H28zM32,37H33V38H32zM35,37H36V38H35zM36,37H37V38H36zM37,37H38V38H37zM38,37H39V38H38zM2,38H3V39H2zM3,38H4V39H3zM4,38H5V39H4zM5,38H6V39H5zM6,38H7V39H6zM7,38H8V39H7zM8,38H9V39H8zM14,38H15V39H14zM17,38H18V39H17zM22,38H23V39H22zM23,38H24V39H23zM25,38H26V39H25zM30,38H31V39H30zM32,38H33V39H32zM34,38H35V39H34zM35,38H36V39H35zM38,38H39V39H38z" id="qr-path" fill="#000000" fill-opacity="1" fill-rule="nonzero" stroke="none"/></svg>